<svg width="132" height="132" viewBox="0 0 132 132" fill="none" xmlns="http://www.w3.org/2000/svg">
<path d="M43.38 50.18C44.06 49.74 45.08 49.28 46.44 48.8C47.84 48.32 49.44 48.08 51.24 48.08C53.48 48.08 55.46 48.48 57.18 49.28C58.94 50.08 60.42 51.2 61.62 52.64C62.82 54.08 63.72 55.8 64.32 57.8C64.96 59.8 65.28 62 65.28 64.4C65.28 66.92 64.9 69.2 64.14 71.24C63.42 73.24 62.38 74.94 61.02 76.34C59.66 77.74 58.02 78.82 56.1 79.58C54.18 80.34 52.02 80.72 49.62 80.72C47.02 80.72 44.72 80.54 42.72 80.18C40.72 79.82 39.08 79.46 37.8 79.1V34.4L43.38 33.44V50.18ZM43.38 75.14C43.94 75.3 44.72 75.46 45.72 75.62C46.76 75.74 48.04 75.8 49.56 75.8C52.56 75.8 54.96 74.82 56.76 72.86C58.56 70.86 59.46 68.04 59.46 64.4C59.46 62.8 59.3 61.3 58.98 59.9C58.66 58.5 58.14 57.3 57.42 56.3C56.7 55.26 55.76 54.46 54.6 53.9C53.48 53.3 52.12 53 50.52 53C49 53 47.6 53.26 46.32 53.78C45.04 54.3 44.06 54.84 43.38 55.4V75.14ZM68.092 86.36H98.092V91.1H68.092V86.36Z" fill="#EDEDED"/>
</svg>
