<svg width="15" height="15" viewBox="0 0 15 15" fill="none" xmlns="http://www.w3.org/2000/svg">
<path fill-rule="evenodd" clip-rule="evenodd" d="M0.320501 14.6796C-0.0179666 14.3411 -0.0179666 13.7923 0.320501 13.4539L11.841 1.93335H4.39999C3.92135 1.93335 3.53332 1.54532 3.53332 1.06668C3.53332 0.588036 3.92135 0.200012 4.39999 0.200012H13.9333C14.1632 0.200012 14.3836 0.291324 14.5462 0.453859C14.7086 0.616394 14.8 0.836822 14.8 1.06668V10.6C14.8 11.0787 14.4119 11.4667 13.9333 11.4667C13.4547 11.4667 13.0667 11.0787 13.0667 10.6V3.159L1.54614 14.6796C1.20769 15.0179 0.658952 15.0179 0.320501 14.6796Z" fill="#F5F5F7"/>
</svg>
